<?xml version="1.0" encoding="UTF-8"?>
<svg id="Layer_1" xmlns="http://www.w3.org/2000/svg" version="1.1" viewBox="0 0 5585.68 1080">
  <!-- Generator: Adobe Illustrator 29.0.0, SVG Export Plug-In . SVG Version: 2.1.0 Build 186)  -->
  <defs>
    <style>
      .st0 {
        fill: #fff;
      }
    </style>
  </defs>
  <path class="st0" d="M546.71,974.6c-.18.88-5.67,10.12-6.67,11.28-16.62,19.2-46.82,7.75-50.12-16.45l-.16-414.29c-209.9-24.08-282.74-300.53-109.36-425.04,172.11-123.6,409.54,20.61,373.46,231.12-8.19,47.77-32.4,89-64.7,124.17l102.02,104.06c16.35,20.44-7.56,50.09-30.02,35.04l-109.78-109.17c-30.57,21.13-66.09,34.72-103,39.79v249.51h67.82c.59,0,1.86-2.97,4.19.84v41.86c-1.25,1.71-1.46,1.82-3.42,1.82-12.9.04-26.38-2.43-39.34-.36l-2.45,1.89v52.75h45.21v44.38l-2.51,2.51h-71.17c-1,7.2,1.37,17.61,0,24.28ZM473.03,356.7c-3.33,11.69,2.48,39.21,0,52.75h-42.7l-2.51-2.51v-174.99h45.21v72l74.52-72h56.1l-85.37,84.52,127.23,125.69c95.73-96.01,42.89-260.44-88.41-288.41-128.25-27.33-239.43,85.64-208.52,213.55,27.56,114.08,162.75,167.84,261.77,104.09l-123.93-124.83c-2.38-2.37-13.14,9.3-13.38,10.15Z"/>
  <g>
    <path class="st0" d="M1252.1,154.91v272.44l222.67-272.44h133.6l-246.03,290.78,272.18,309.19c1.35,16.04-5.68,2.55-7.82,2.55h-125.74c-1.38,0-4.75,4.77-9.64,4.25l-239.22-276.69v277.68c-38.55,2.36-77.63-11.47-115.26,0V154.91h115.26Z"/>
    <path class="st0" d="M4914.36,128.72v246.25c79.18-94.55,241.24-97.32,285.4,31.58,3.19,9.32,13.24,47.88,13.24,54.87v301.26c-34.31-15.75-77.49,6.98-110.03-7.86v-282.92c0-1.91-9.08-27.11-11.16-30.76-26.13-46.09-90.62-42.96-129.97-16.06-7.6,5.2-47.49,47.52-47.49,52.06v277.68l-7.71,6.34-102.32,1.52V128.72h110.03Z"/>
    <path class="st0" d="M2770.54,145.83c32.11-.91,71.74,4.96,101.93,15.5,14.22,4.96,74.57,35.48,80.15,45.99,5.35,10.07-32.26,62.45-42.97,72.93-52.53-46.5-229.71-68.67-232.94,29.17-2.13,64.64,110.27,84.46,159.52,108.21,80.25,38.71,153.84,90.42,144.76,190.46-17.97,198-313.77,200.43-427.15,86.56l49.94-81.42,94.48,52.4c68.66,28.09,191.05,6.57,165.05-91.73-13.95-52.73-135.78-78.11-182.76-100.13-209.23-98.05-120.48-321.99,89.99-327.93Z"/>
    <path class="st0" d="M3829.78,694.56c-94.06,123.59-339.97,95.98-313.85-91.23,17.87-128.05,194.32-105.7,287.62-113.18,27.77-124.09-140.24-139.3-176.32-36.42l-80.62-7.74c-13.44-35.51,27.44-87.75,56.18-106.84,58.18-38.65,176.57-42.14,237.78-9,121.52,65.79,66.01,309.92,77.49,424.05l-4.15,5.89-84.24.17c-9.4-21.17-3.48-44.12.1-65.71ZM3803.63,563.58h-133.6c-16.11,0-50.1,28.53-53.94,45.66-24.88,110.96,178.43,85.32,187.82,14.86,2.46-18.43-2.29-41.39-.28-60.53Z"/>
    <path class="st0" d="M2043.23,558.34h-309.12c-2.08,147.17,168.8,161.66,254.1,73.57l54.92,54.79c-59.13,67.22-140.4,88.38-228,81.4-269.79-21.51-262.64-459.6,26.3-461.66,151.66-1.08,204.35,117.68,201.8,251.9ZM1943.68,479.75c-23.32-128.09-185.04-124.63-209.57,0h209.57Z"/>
    <path class="st0" d="M3463.08,558.34h-309.12c-.06,142.72,168.51,166.9,248.9,73.24l60.12,55.13c-183.46,188.61-496.76,39.54-410.03-231.99,58-181.6,334.5-207.25,392.92-18.01,13.08,42.36,8.96,80.16,17.21,121.63ZM3358.29,479.75c-8.02-129.33-186.89-121.9-199.09,0h199.09Z"/>
    <polygon class="st0" points="2163.73 317.33 2292.04 636.96 2415.22 317.33 2530.48 317.33 2263.28 951.28 2153.26 951.28 2241.18 750.42 2043.23 317.33 2163.73 317.33"/>
    <path class="st0" d="M4746.7,416.8l-81.29,47.3c-29.5-16.58-40.39-45.23-74.47-56.49-75.77-25.05-150.5,10.05-162.47,91.85-23.73,162.2,128.58,242.72,236.97,117.75l73.75,45.9c9.85,15.73-46.59,59.45-58.83,67.28-199.5,127.62-431.45-61.01-351.62-283.51,63.25-176.28,323.41-183.29,417.96-30.08Z"/>
    <path class="st0" d="M4280.41,416.88c-54.42-2.33-103.9,15.02-138.9,57.57-4.05,4.92-23.51,31.77-23.51,34.12v246.25l-7.63,6.59-102.4,1.27v-445.34h104.79v78.59l44.66-47.03c14.12-9.78,29.92-21.31,46.06-27.29,13.41-4.96,73.01-20.68,79.86-9.51,3.27,3.87-2.93,6.57-2.93,7.86v96.93Z"/>
  </g>
</svg>